<svg width="189" height="185" viewBox="0 0 189 185" fill="none" xmlns="http://www.w3.org/2000/svg">
<path opacity="0.5" fill-rule="evenodd" clip-rule="evenodd" d="M106.242 166.622C88.1418 167.878 70.3969 162.882 55.7494 156.486C41.1984 150.132 27.8886 141.62 24.8712 131.091C22.0072 121.098 20.3702 117.753 28.7052 108.89C35.591 101.569 48.9112 99.3951 58.8033 92.8104C68.6955 86.2256 101.682 82.1808 121.474 88.2212C127.874 90.1745 151.363 98.838 157.685 105.64C166.416 115.034 190.511 120.599 188.378 131.238C186.338 141.409 164.693 149.914 150.669 155.956C136.597 162.018 123.549 165.421 106.242 166.622Z" fill="white"/>
<ellipse opacity="0.05" cx="99.3093" cy="139.338" rx="24.6297" ry="6.11601" fill="black"/>
<path d="M72.4498 60.4684H71.4893V74.0536H72.4498V60.4684Z" fill="#7E7C8F"/>
<path d="M108.937 47.1572H78.6381C75.0685 47.1572 72.1748 50.0509 72.1748 53.6205V134.556C72.1748 138.125 75.0685 141.019 78.6381 141.019H108.937C112.507 141.019 115.401 138.125 115.401 134.556V53.6205C115.401 50.0509 112.507 47.1572 108.937 47.1572Z" fill="#7E7C8F"/>
<path d="M108.937 51.5488H78.6381C75.0685 51.5488 72.1748 54.4425 72.1748 58.0121V130.576C72.1748 134.146 75.0685 137.04 78.6381 137.04H108.937C112.507 137.04 115.401 134.146 115.401 130.576V58.0121C115.401 54.4425 112.507 51.5488 108.937 51.5488Z" fill="#CDD7E7"/>
<path d="M108.948 51.1066H78.6408C75.0703 51.1066 72.1758 54.001 72.1758 57.5716V130.155C72.1758 133.726 75.0703 136.62 78.6408 136.62H108.948C112.519 136.62 115.413 133.726 115.413 130.155V57.5716C115.413 54.001 112.519 51.1066 108.948 51.1066Z" fill="#CDD7E7"/>
<path d="M90.6322 59.1025H76.0137L75.9951 61.7382H90.6136L90.6322 59.1025Z" fill="white"/>
<path opacity="0.5" d="M85.3592 87.2587H76.0107L75.9937 89.6744H85.3422L85.3592 87.2587Z" fill="white"/>
<path opacity="0.5" d="M98.1337 87.2587H88.7852L88.7675 89.6744H98.116L98.1337 87.2587Z" fill="white"/>
<path opacity="0.5" d="M110.907 87.2587H101.559L101.541 89.6744H110.889L110.907 87.2587Z" fill="white"/>
<path d="M110.794 94.0161H76.0107L75.9936 96.4286H110.777L110.794 94.0161Z" fill="white"/>
<path d="M110.794 98.5211H76.0107L75.9936 100.934H110.777L110.794 98.5211Z" fill="white"/>
<path d="M110.794 103.026H76.0107L75.9936 105.439H110.777L110.794 103.026Z" fill="white"/>
<path d="M96.153 107.531H76.0107L75.9936 109.944H96.1359L96.153 107.531Z" fill="white"/>
<path d="M110.91 64.7338H75.9941L75.859 83.88H110.775L110.91 64.7338Z" fill="white"/>
<path d="M91.8024 71.3801L97.7254 74.7997L91.8024 78.2193L91.8024 71.3801Z" fill="#CDD7E7"/>
<rect opacity="0.4" x="75.9941" y="113.162" width="15.7675" height="15.7675" fill="white"/>
<rect opacity="0.4" x="95.1406" y="113.162" width="15.7675" height="15.7675" fill="white"/>
<path d="M137.94 112.564H135.021L133.987 111.566C137.733 107.222 139.791 101.675 139.787 95.9394C139.787 91.1901 138.379 86.5476 135.74 82.5987C133.102 78.6498 129.351 75.5721 124.964 73.7546C120.576 71.9372 115.748 71.4616 111.09 72.3882C106.432 73.3147 102.153 75.6017 98.7949 78.9599C95.4366 82.3181 93.1497 86.5968 92.2231 91.2548C91.2966 95.9128 91.7721 100.741 93.5896 105.129C95.407 109.516 98.4848 113.267 102.434 115.905C106.383 118.544 111.025 119.952 115.774 119.952C121.722 119.952 127.19 117.772 131.401 114.152L132.398 115.186V118.105L150.87 136.539L156.374 131.035L137.94 112.564ZM115.774 112.564C106.576 112.564 99.1502 105.138 99.1502 95.9394C99.1502 86.7407 106.576 79.3153 115.774 79.3153C124.973 79.3153 132.398 86.7407 132.398 95.9394C132.398 105.138 124.973 112.564 115.774 112.564Z" fill="#7E7C8F"/>
</svg>
