<svg width="176" height="122" viewBox="0 0 176 122" fill="none" xmlns="http://www.w3.org/2000/svg">
<path opacity="0.5" fill-rule="evenodd" clip-rule="evenodd" d="M174.831 69.4961C176.937 84.1314 165.562 92.8235 154.836 104.667C144.18 116.433 133.302 119.013 115.644 121.453C98.8851 123.769 80.4803 118.157 64.4559 115.057C51.2588 112.505 32.7105 110.006 21.2655 104.667C9.26825 99.0706 -3.46661 81.0472 1.66994 69.4961C9.66805 51.5098 24.6228 54.0663 36.4621 45.9155C46.4129 39.0649 57.2574 25.9309 67.6708 16.8494C80.6798 5.50412 92.5132 -0.785376 110.355 0.939779C127.414 2.58919 131.106 29.3808 141.239 40.7198C151.406 52.0982 172.817 55.5019 174.831 69.4961Z" fill="#E8EEF6"/>
<rect x="32.9189" y="16.0535" width="115.172" height="86.1287" rx="3.5" fill="white" stroke="#7E7C8F"/>
<rect x="60.5957" y="32.3401" width="57.4987" height="39.8348" rx="0.5" fill="white" stroke="#E2E7F0"/>
<path d="M114.555 40.876V16.4465H131.925V40.876L123.24 32.1908L114.555 40.876Z" fill="#6ECA4B"/>
<path d="M73.2699 61.9941H71.9482V70.7082H73.2699V61.9941Z" fill="#D8E2F0"/>
<path d="M101.695 61.9856H76.1953V70.9131H101.695V61.9856Z" fill="#6C63FF"/>
<path d="M105.943 61.9856H71.9473V70.4258H105.943V61.9856Z" fill="#7E7C8F"/>
<path d="M82.0167 62.0858L84.3855 37.6965H93.1838L95.5526 62.0858H82.0167Z" fill="#D8E2F0" stroke="#7E7C8F"/>
<path d="M86.5603 61.9856H78.8643V70.708H86.5603V61.9856Z" fill="#D8E2F0"/>
<path opacity="0.4" d="M85.0211 61.9856H80.4033V70.708H85.0211V61.9856Z" fill="white"/>
<path d="M106.559 61.9934H105.237V70.7075H106.559V61.9934Z" fill="#D8E2F0"/>
<path d="M98.9265 61.9856H91.2305V70.708H98.9265V61.9856Z" fill="#D8E2F0"/>
<path opacity="0.4" d="M97.3873 61.9856H92.7695V70.708H97.3873V61.9856Z" fill="white"/>
<path d="M113.699 70.427H65.5947V72.3512H113.699V70.427Z" fill="#7E7C8F"/>
<path d="M107.979 61.427H71.3164V62.261H107.979V61.427Z" fill="#98ABC5"/>
<rect x="87.9209" y="39.7512" width="1.72824" height="2.08628" fill="white"/>
<path d="M83.3057 35.8958H94.2533L94.0486 37.3876H83.4995L83.3057 35.8958Z" fill="#7E7C8F"/>
<rect x="87.9209" y="43.9036" width="1.72824" height="2.08628" fill="white"/>
<rect x="87.9238" y="48.0696" width="1.72824" height="2.08628" fill="white"/>
<rect x="87.9277" y="52.2375" width="1.72824" height="2.08628" fill="white"/>
<rect x="87.9316" y="56.4016" width="1.72824" height="2.08628" fill="white"/>
<rect x="86.5596" y="62.259" width="4.67002" height="8.20182" fill="#E8EEF6"/>
<path opacity="0.23" d="M94.394 46.6965H83.3057V47.6965H94.394V46.6965Z" fill="#B8C8DF"/>
<path opacity="0.23" d="M95.0773 50.6965H82.6211V51.6965H95.0773V50.6965Z" fill="#B8C8DF"/>
<path opacity="0.23" d="M95.4489 54.6965H82.252V55.6965H95.4489V54.6965Z" fill="#B8C8DF"/>
<path opacity="0.23" d="M95.798 58.6965H81.9004V59.6965H95.798V58.6965Z" fill="#B8C8DF"/>
<path opacity="0.23" d="M94.0773 42.6965H83.6211V43.6965H94.0773V42.6965Z" fill="#B8C8DF"/>
<rect x="60.0957" y="76.1704" width="58.4987" height="3.52371" fill="#E8EEF6"/>
<rect x="60.0957" y="82.5408" width="58.4987" height="3.52371" fill="#E8EEF6"/>
<rect x="60.0957" y="88.9089" width="37.2685" height="3.52371" fill="#E8EEF6"/>
<rect x="60.0957" y="24.158" width="37.2685" height="3.52371" fill="#E8EEF6"/>
</svg>
