<svg width="166" height="147" viewBox="0 0 166 147" fill="none" xmlns="http://www.w3.org/2000/svg">
<path opacity="0.5" fill-rule="evenodd" clip-rule="evenodd" d="M83.0312 145.83C64.9309 147.727 47.186 140.182 32.5384 130.523C17.9875 120.927 4.67767 108.072 1.66023 92.1716C-1.2037 77.0803 2.48258 70.7973 10.8176 57.413C17.7034 46.3558 31.6911 32.7971 41.5832 22.8527C50.8821 13.5047 64.6611 0.38244 80.2926 0.219627C95.9404 0.0566467 108.97 7.09433 119.051 17.7554C124.532 23.5521 128.152 43.4626 134.474 53.7352C143.205 67.9218 167.3 76.3266 165.167 92.3928C163.127 107.754 141.482 120.599 127.458 129.723C113.386 138.878 100.339 144.017 83.0312 145.83Z" fill="#E8EEF6"/>
<path d="M129.5 24.0368L132.899 26L131.997 22.3L135 19.8105L131.046 19.4895L129.5 16L127.954 19.4895L124 19.8105L127.003 22.3L126.101 26L129.5 24.0368Z" fill="#6ECA4B"/>
<path d="M143.5 24.0368L146.899 26L145.997 22.3L149 19.8105L145.046 19.4895L143.5 16L141.954 19.4895L138 19.8105L141.003 22.3L140.101 26L143.5 24.0368Z" fill="#6ECA4B"/>
<path d="M114.5 24.3546L117.848 26.375L116.959 22.5671L119.917 20.005L116.022 19.6746L114.5 16.0834L112.978 19.6746L109.083 20.005L112.041 22.5671L111.153 26.375L114.5 24.3546Z" fill="#6ECA4B"/>
<path d="M98.5002 24.3546L101.848 26.375L100.959 22.5671L103.917 20.005L100.022 19.6746L98.5002 16.0834L96.9781 19.6746L93.0835 20.005L96.041 22.5671L95.1527 26.375L98.5002 24.3546Z" fill="#6ECA4B"/>
<path d="M82.5002 24.3546L85.8477 26.375L84.9593 22.5671L87.9168 20.005L84.0222 19.6746L82.5002 16.0834L80.9781 19.6746L77.0835 20.005L80.041 22.5671L79.1527 26.375L82.5002 24.3546Z" fill="#6ECA4B"/>
<path d="M41.2746 56.3417C42.1323 59.5122 45.07 61.4757 45.07 61.4757C45.07 61.4757 46.6172 58.299 45.7595 55.1285C44.9018 51.958 41.9641 49.9945 41.9641 49.9945C41.9641 49.9945 40.417 53.1713 41.2746 56.3417Z" fill="#6C63FF"/>
<path d="M42.535 55.6604C44.8885 57.9514 45.1759 61.4732 45.1759 61.4732C45.1759 61.4732 41.6477 61.2805 39.2942 58.9895C36.9408 56.6985 36.6533 53.1768 36.6533 53.1768C36.6533 53.1768 40.1816 53.3694 42.535 55.6604Z" fill="#E6E6E6"/>
<path d="M136.931 80.2633H133.59V61.756C133.588 61.2502 133.387 60.7654 133.029 60.4077C132.671 60.05 132.187 59.8484 131.681 59.8469H125.953V43.5576C125.952 43.0517 125.75 42.567 125.393 42.2092C125.035 41.8515 124.55 41.6499 124.044 41.6484H34.9519C34.4461 41.6499 33.9613 41.8515 33.6036 42.2092C33.2459 42.567 33.0443 43.0517 33.0428 43.5576V59.8469H27.3154C26.8096 59.8484 26.3248 60.05 25.9671 60.4077C25.6094 60.7654 25.4078 61.2502 25.4063 61.756V80.2633H22.0654C21.5595 80.2648 21.0748 80.4664 20.7171 80.8241C20.3593 81.1818 20.1577 81.6666 20.1562 82.1725V109.537C20.1577 110.042 20.3593 110.527 20.7171 110.885C21.0748 111.243 21.5595 111.444 22.0654 111.446H136.931C137.437 111.444 137.921 111.243 138.279 110.885C138.637 110.527 138.838 110.042 138.84 109.537V82.1725C138.838 81.6666 138.637 81.1819 138.279 80.8241C137.921 80.4664 137.437 80.2648 136.931 80.2633Z" fill="#7E7C8F"/>
<path d="M153.917 104.448C153.917 98.055 150.673 92.8729 146.672 92.8729C144.157 92.8729 141.942 94.9209 140.643 98.029C140.204 97.8468 139.734 97.7524 139.259 97.7512C138.048 97.7512 136.928 98.3718 136.015 99.4221C134.844 95.5467 132.36 92.8729 129.486 92.8729C126.799 92.8729 124.455 95.2121 123.205 98.6837C122.51 98.0973 121.634 97.768 120.725 97.7512C117.654 97.7512 115.165 101.728 115.165 106.634C115.152 108.269 115.449 109.892 116.041 111.417H152.456C153.373 109.478 153.917 107.065 153.917 104.448Z" fill="#D0E1F1"/>
<path d="M120.237 74.4785C118.483 77.2551 119.024 80.7468 119.024 80.7468C119.024 80.7468 122.41 79.7368 124.165 76.9601C125.919 74.1835 125.377 70.6918 125.377 70.6918C125.377 70.6918 121.991 71.7019 120.237 74.4785Z" fill="#DEDEDE"/>
<path d="M121.591 74.9449C121.497 78.228 119.098 80.8224 119.098 80.8224C119.098 80.8224 116.853 78.094 116.947 74.811C117.042 71.5279 119.441 68.9335 119.441 68.9335C119.441 68.9335 121.686 71.6619 121.591 74.9449Z" fill="#E6E6E6"/>
<path d="M133.59 80.2621H25.4062V82.1712H133.59V80.2621Z" fill="#E6E6E6"/>
<path d="M125.953 59.899H33.043V61.8082H125.953V59.899Z" fill="#E6E6E6"/>
<path d="M45.8398 57.8241L96.117 43.5447L103.61 69.9257L99.9775 70.9573L102.747 80.7069L90.2279 73.7264L53.3325 84.2053L45.8398 57.8241Z" fill="#CDD7E7"/>
<path d="M76.3286 69.5234L75.2142 68.9751C71.2423 66.9774 68.6293 65.6908 67.9651 63.3522C67.8309 62.9095 67.7869 62.4443 67.8357 61.9843C67.8845 61.5243 68.0251 61.0787 68.2492 60.674C68.4733 60.2692 68.7763 59.9136 69.1402 59.628C69.5042 59.3425 69.9218 59.1329 70.3682 59.0116C70.8942 58.8653 71.4457 58.8351 71.9844 58.9233C72.5232 59.0115 73.0363 59.2159 73.4881 59.5223C73.7115 59.0241 74.0405 58.5805 74.4525 58.2223C74.8645 57.8641 75.3495 57.5999 75.8739 57.4479C76.3174 57.3165 76.7828 57.2753 77.2425 57.3269C77.7023 57.3785 78.147 57.5218 78.5503 57.7483C78.9537 57.9748 79.3075 58.28 79.5908 58.6457C79.8742 59.0114 80.0812 59.4302 80.1998 59.8773C80.864 62.2159 79.3173 64.684 76.9885 68.4711L76.3286 69.5234Z" fill="white"/>
</svg>
